<?xml version="1.0" encoding="UTF-8"?>
<svg xmlns="http://www.w3.org/2000/svg" xmlns:xlink="http://www.w3.org/1999/xlink" width="220" height="220" viewBox="112 112 800 800">
<circle cx="512" cy="512" r="400" fill="#64AC36"/>
<defs>
<linearGradient id="glyph-g" x1="512" y1="272" x2="512" y2="748" gradientUnits="userSpaceOnUse">
<stop stop-color="#F6FCEE"/>
<stop offset="1" stop-color="#CDEAAD"/>
</linearGradient>
</defs>
<path fill-rule="evenodd" fill="url(#glyph-g)" d="M292.00,350.00 a220.00,78.00 0 1,0 440.00,0 a220.00,78.00 0 1,0 -440.00,0 Z M340.00,350.00 a172.00,60.00 0 1,0 344.00,0 a172.00,60.00 0 1,0 -344.00,0 Z M356.00,350.00 a156.00,54.00 0 1,0 312.00,0 a156.00,54.00 0 1,0 -312.00,0 Z M512,333 L558,350 L512,367 L466,350 Z M292,368 A220,78 0 0 0 732,368 L732,430 A220,78 0 0 1 292,430 Z M292,448 A220,78 0 0 0 732,448 L732,510 A220,78 0 0 1 292,510 Z M292,528 A220,78 0 0 0 732,528 L732,590 A220,78 0 0 1 292,590 Z M292,608 A220,78 0 0 0 732,608 L732,670 A220,78 0 0 1 292,670 Z"/>
</svg>
